<svg id="Capa_1" data-name="Capa 1" xmlns="http://www.w3.org/2000/svg" viewBox="0 0 185.75 193.37"><defs><style>.cls-1{fill:#10253e;}.cls-2{fill:none;}.cls-2,.cls-6,.cls-7{stroke:#000;stroke-miterlimit:10;stroke-width:0.25px;}.cls-3{fill:#11253e;}.cls-4{fill:#ff9f1a;}.cls-5{fill:#182533;}.cls-6{fill:#111b29;}.cls-16,.cls-7{fill:#171d30;}.cls-8{fill:#18222f;}.cls-9{fill:#e6ecf3;}.cls-10{fill:#fbd6d1;}.cls-11{fill:#fadcd5;}.cls-12{fill:#5a6063;}.cls-13{fill:#f6d6d1;}.cls-14{fill:#f8f9fa;}.cls-15{fill:#e9eff3;}.cls-17{fill:#4a1a2a;}</style></defs><path class="cls-1" d="M151.08,75.71c-7.56.38-8.44,7.41-11.83,11.94-9.52,13.32-20.64,17.48-36.37,13.85-3.59-.83-7-2.55-10.82-2.31-2.62.74-3.59,3.16-5.12,5a16.42,16.42,0,0,0-1.15,2.1,29.63,29.63,0,0,1-5.55,9.85c-.86,1.25-1.67,2.53-2.55,3.76-1.39,1.83-2.9,3.6-2.8,6.12,1.11,4-.84,6.2-4.38,7.47a6.38,6.38,0,0,0-1.32,1.85c-1,3.29-2.61,6.11-6.27,7.08a16.51,16.51,0,0,0-3.17,1.3c-5,3.17-10.27,5.51-16.4,5-6.27,8-15,12.2-24.17,15.9-4.54,1.84-9.85,1.65-13.72,5.21,4,7.28,11.05,7.5,17.72,6.53,10.88-1.58,21.8-3.52,31.73-8.78,9.37-3.49,18.12-8.22,26.79-13.11,21.89-12.36,40.81-28.92,61.33-43.21A110.79,110.79,0,0,1,155.13,101c4.13-3.11,9.05-5.73,10.83-11.22C162,84.06,158.58,77.74,151.08,75.71Z"/><path class="cls-2" d="M151.08,75.71c-7.56.38-8.44,7.41-11.83,11.94-9.52,13.32-20.64,17.48-36.37,13.85-3.59-.83-7-2.55-10.82-2.31-2.62.74-3.59,3.16-5.12,5a16.42,16.42,0,0,0-1.15,2.1,29.63,29.63,0,0,1-5.55,9.85c-.86,1.25-1.67,2.53-2.55,3.76-1.39,1.83-2.9,3.6-2.8,6.12,1.11,4-.84,6.2-4.38,7.47a6.38,6.38,0,0,0-1.32,1.85c-1,3.29-2.61,6.11-6.27,7.08a16.51,16.51,0,0,0-3.17,1.3c-5,3.17-10.27,5.51-16.4,5-6.27,8-15,12.2-24.17,15.9-4.54,1.84-9.85,1.65-13.72,5.21,4,7.28,11.05,7.5,17.72,6.53,10.88-1.58,21.8-3.52,31.73-8.78,9.37-3.49,18.12-8.22,26.79-13.11,21.89-12.36,40.81-28.92,61.33-43.21A110.79,110.79,0,0,1,155.13,101c4.13-3.11,9.05-5.73,10.83-11.22C162,84.06,158.58,77.74,151.08,75.71Z"/><path class="cls-3" d="M177,112.78c-10.32,2.59-19,8.86-28.61,13-2.42,3.73-6.24,2.58-9.66,2.81a17.94,17.94,0,0,0-6.12,1c-16.47,9.41-31.74,20.52-46.47,32.4a61,61,0,0,1-14.48,8.67,9.3,9.3,0,0,0-3.2,3.64c-4,5.39-10.51,5.22-16,7.29-6.25,3.64-13.44.28-19.85,2.65A4.67,4.67,0,0,0,30.44,186c-1.39,4.9,1.68,5.94,5.47,6.12,2.43.12,4.94-1.6,7.3.34l74.19-6.63c-1.89-1.91-4.16-1-6.33-.88l-.2,0-.17,0c-.26.08-.36.23-.3.46.3,1.1-.69-.32,0-.39l.34-.07.17,0c4.47-.9,9.41.4,11.6-4.84q2.63-1.44,5.24-2.89c-2.55-3.13-6.14-1.34-9.21-2-3.44-.75-6.87,2.78-10.23-.12-7.92.34-5.66-5.52-3.37-7.79,3.38-3.34,8-7,13.71-4.37,5.42,2.47,10.54,1.59,15.57-.79,11.82-5.57,24.1-10.4,35.27-17.08C190.52,132.5,188.75,133.39,177,112.78Z"/><path class="cls-2" d="M177,112.78c-10.32,2.59-19,8.86-28.61,13-2.42,3.73-6.24,2.58-9.66,2.81a17.94,17.94,0,0,0-6.12,1c-16.47,9.41-31.74,20.52-46.47,32.4a61,61,0,0,1-14.48,8.67,9.3,9.3,0,0,0-3.2,3.64c-4,5.39-10.51,5.22-16,7.29-6.25,3.64-13.44.28-19.85,2.65A4.67,4.67,0,0,0,30.44,186c-1.39,4.9,1.68,5.94,5.47,6.12,2.43.12,4.94-1.6,7.3.34l74.19-6.63c-1.89-1.91-4.16-1-6.33-.88l-.2,0-.17,0c-.26.08-.36.23-.3.46.3,1.1-.69-.32,0-.39l.34-.07.17,0c4.47-.9,9.41.4,11.6-4.84q2.63-1.44,5.24-2.89c-2.55-3.13-6.14-1.34-9.21-2-3.44-.75-6.87,2.78-10.23-.12-7.92.34-5.66-5.52-3.37-7.79,3.38-3.34,8-7,13.71-4.37,5.42,2.47,10.54,1.59,15.57-.79,11.82-5.57,24.1-10.4,35.27-17.08C190.52,132.5,188.75,133.39,177,112.78Z"/><path class="cls-4" d="M141.25,72.67c-.26-1-4.52-9.55-5.33-8.84C158.65,43.9,165.1,20.1,150.79,0,146.93,21.81,132.57,34.32,115,44.53A69.55,69.55,0,0,0,93.39,64.88c-5.78,8.22-7.86,16.9-3.87,26.51,0,.43,0,.85.07,1.28,4.86,8.18,14.15,11.93,21.34,8.62,3.32-1.53,6.44-3.85,7.92-7.29s.08-6.63.24-10.09c1.77,3.52.8,8.14,4,11,3.74,3.34,9.93,1.07,13.42-1.48a9.8,9.8,0,0,0,4.23-6.29,7.93,7.93,0,0,0-.73-4.75,16.41,16.41,0,0,1-1.05-1.93c-.33-.85.09-1.26.53-2C140.47,76.87,141.79,74.65,141.25,72.67Z"/><path class="cls-4" d="M166,89.82c-8.24,6.42-17.24,12-23.77,20.37-5.6,5.82-12.44,11-9.84,20.75l6.72-.19c3-2.36,7.47-.52,10.23-3.57,9.66-4,19.39-7.77,27.66-14.4C174.76,104.43,171.48,96.59,166,89.82Z"/><path class="cls-4" d="M66.59,165.25c-3.62-1.11-6.8,1.05-10.29.37-.53-.1-.93-.39-1.47-.21-.38.13-.78.34-1.15.5A110.55,110.55,0,0,1,24.61,174c-6.8.94-13.48,0-19.15-4.12-7.62,5.1-7.26,10.75,1,16.73,1.15.84,5.06.68,6.55.92a59.59,59.59,0,0,0,6.54.81c2.53.12,5.58.13,7.88-1.13.79-.43,1.53-1,2.33-1.39a3.67,3.67,0,0,1,2.44-.46,7.07,7.07,0,0,0,2.66-.25,25,25,0,0,1,2.94-.56,17.59,17.59,0,0,0,4.83-.93,13.78,13.78,0,0,0,1.78-1c4.22-2.49,8.81-1.63,13.38-2.46a41.27,41.27,0,0,0,8.23-2.83c.9-.37,1.8-.75,2.65-1.2a6.5,6.5,0,0,0,3.11-4.74C71.85,168.21,69.36,166.1,66.59,165.25Z"/><path class="cls-4" d="M84.59,87.2c-3.79-3.35-6.88-2.87-9.06,1.78-1.67,3.56-3.21,7.17-4.81,10.77,3.31,3.82,7.55,6.26,12.14,8.18a5.07,5.07,0,0,0,4.66-1.24,2.31,2.31,0,0,0,.3-1.54C92.36,98.16,87.89,92.78,84.59,87.2Z"/><path class="cls-4" d="M79.35,120.55a4.76,4.76,0,0,0-3.91-2.4,3.79,3.79,0,0,0-2.77,2A4.86,4.86,0,0,1,68.19,124c-3.69,4.61-8.94-1.72-12.8,1.81-.82,1.71-3.79,3.33-.19,5.2,4.41,1.83,2.87,4.44.94,7.1-.47,3.42,1.53,5.25,4.26,6.62.52.26,3-.44,3.47-.69a4.93,4.93,0,0,0,1.33-1.08,86.59,86.59,0,0,0,6.88-7.69,22.34,22.34,0,0,0,3.24-5.75c.85-2.35.71-4.28,2.34-6.29C78,122.8,79.69,121.17,79.35,120.55Z"/><path class="cls-5" d="M154.54,55.12c-6.46,3.27-11.51,8.25-18.62,8.71-.47.62-1.45,1.38-1.32,1.83.47,1.68,3.36,13.09,3.23,13.84,6.44.17,9.36-4,11.28-9.29C150.77,65.32,154.85,61.25,154.54,55.12Z"/><path class="cls-2" d="M154.54,55.12c-6.46,3.27-11.51,8.25-18.62,8.71-.47.62-1.45,1.38-1.32,1.83.47,1.68,3.36,13.09,3.23,13.84,6.44.17,9.36-4,11.28-9.29C150.77,65.32,154.85,61.25,154.54,55.12Z"/><path class="cls-6" d="M117.4,185.86l-7.41-.71c4.59-.75,8.52-2.9,12.48-5h39.86l.2,2.57Z"/><path class="cls-7" d="M6.51,186.58c8.12-3,16.5-.5,24.73-1.16-.17,3.11.57,5.3,4.38,5.33,2.6,0,5.55-.92,7.59,1.74C30.38,194.21,18,193.3,6.51,186.58Z"/><path class="cls-4" d="M56.93,137.91c-.62-1.63-2-1.87-3.48-1.86-4.23,3.54-7.1,8.17-10.1,12.69,7.1,4.66,12.18.74,17-4C60.76,141.67,56.92,140.78,56.93,137.91Z"/><path class="cls-4" d="M81.66,109.76c-2.92-2.92-7-4.43-11.28-5.17-4.64-.81-8.33.07-7.37,5l2.27,1.74c2.79,2.48,6.63,3.88,9.68,6.1.9,1.25,2.45,1.43,4,1.54,1.72-.54,1.77-1.77,1.91-3C82.11,114,83,112,81.66,109.76Z"/><path class="cls-8" d="M138.66,173.21c-10.14.51-20.34,0-30.39,1.94,1,2.27,2.45,3.7,5.25,2.73,4.66-1.62,9.45-.76,14.19-.6L147.53,175C145.4,170.38,141.69,173.46,138.66,173.21Z"/><path class="cls-2" d="M138.66,173.21c-10.14.51-20.34,0-30.39,1.94,1,2.27,2.45,3.7,5.25,2.73,4.66-1.62,9.45-.76,14.19-.6L147.53,175C145.4,170.38,141.69,173.46,138.66,173.21Z"/><path class="cls-9" d="M149.11,70.21c-3.45,3.47-6.67,7.23-11.28,9.29-.53,1.94-4.08.76-3.67,3.48.56,3.06,10.34-4.27,5.33,5,.45.87.9.83,1.34,0,3.94-3.63,4.33-10.24,10.25-12.21C150.42,73.88,149.77,72.05,149.11,70.21Z"/><path class="cls-2" d="M149.11,70.21c-3.45,3.47-6.67,7.23-11.28,9.29-.53,1.94-4.08.76-3.67,3.48.56,3.06,10.34-4.27,5.33,5,.45.87.9.83,1.34,0,3.94-3.63,4.33-10.24,10.25-12.21C150.42,73.88,149.77,72.05,149.11,70.21Z"/><path class="cls-10" d="M82.67,106.85c-3.27-3.57-7.66-5.24-12-7.1-.12,2.33-1.69,3.06-3.64,3.91-2.86,1.23-4.59,3.34-2,6.49,1.37-4.34,3.54-6.11,8-3.21,2.32,1.5,5.18,2.14,7.8,3.17C82.4,109.5,83.41,108.64,82.67,106.85Z"/><path class="cls-2" d="M82.67,106.85c-3.27-3.57-7.66-5.24-12-7.1-.12,2.33-1.69,3.06-3.64,3.91-2.86,1.23-4.59,3.34-2,6.49,1.37-4.34,3.54-6.11,8-3.21,2.32,1.5,5.18,2.14,7.8,3.17C82.4,109.5,83.41,108.64,82.67,106.85Z"/><path class="cls-4" d="M73.58,120.47c-1-3.21-4.86-5.75-8.14-5.69a9.46,9.46,0,0,0-5.77,2c-3.17,3,3,7.29,5.64,7.84a6.15,6.15,0,0,0,2.79-.29c1.38-.31,2.51,1.15,4.05.48a3.07,3.07,0,0,0,1.64-3.09A4.87,4.87,0,0,0,73.58,120.47Z"/><path class="cls-10" d="M67.13,112.09c-1.48,2.74-6.55,0-6.88,4.47,5.65-2.62,9,3.09,13.75,3.79l1.76-1.51C75.35,113.43,71.36,112.61,67.13,112.09Z"/><path class="cls-2" d="M67.13,112.09c-1.48,2.74-6.55,0-6.88,4.47,5.65-2.62,9,3.09,13.75,3.79l1.76-1.51C75.35,113.43,71.36,112.61,67.13,112.09Z"/><path class="cls-11" d="M68.46,124.11l-8.23-3.2c.28,3.5-4.36,2.14-4.84,4.89,3.37-.89,5.85,1.34,8.65,2.45C68.44,130,69.93,128.63,68.46,124.11Z"/><path class="cls-2" d="M68.46,124.11l-8.23-3.2c.28,3.5-4.36,2.14-4.84,4.89,3.37-.89,5.85,1.34,8.65,2.45C68.44,130,69.93,128.63,68.46,124.11Z"/><path class="cls-12" d="M138.66,173.21c2.8,1.39,6.34-.87,8.87,1.82l13.86-2C153.68,171.72,146.11,171.06,138.66,173.21Z"/><path class="cls-2" d="M138.66,173.21c2.8,1.39,6.34-.87,8.87,1.82l13.86-2C153.68,171.72,146.11,171.06,138.66,173.21Z"/><path class="cls-4" d="M89.43,91.22c0,.06,0,.11.07.16h0Z"/><path class="cls-4" d="M89.5,91.38q-2.44-2.1-4.91-4.18c1.78,5.85,4.31,11.58,3.23,18a6.87,6.87,0,0,0,3.67-4.93C92.44,96.91,90.87,94.16,89.5,91.38Z"/><path class="cls-13" d="M61.25,134.14c-.49-.85-5.7-3.56-5.68-3s.3,1,.3,1.45c0,1.58-2,2.11-2.42,3.51.29,1.17,1.82,1.83,3.49,1.95C59.26,138.15,62.92,137,61.25,134.14Z"/><path class="cls-2" d="M61.25,134.14c-.49-.85-5.7-3.56-5.68-3s.3,1,.3,1.45c0,1.58-2,2.11-2.42,3.51.29,1.17,1.82,1.83,3.49,1.95C59.26,138.15,62.92,137,61.25,134.14Z"/><path class="cls-14" d="M129.65,118.32c-23.42,17.86-46.72,35.91-74.44,47,5.33,2.61,12.92-1,16.62,6a3.46,3.46,0,0,0,4,.09c19-12.38,35.72-27.93,55.55-39.09.45-.25.66-.91,1-1.38.42-8.27,6.82-13.71,9.84-20.75C136.85,111.09,133.6,115.31,129.65,118.32Z"/><path class="cls-2" d="M129.65,118.32c-23.42,17.86-46.72,35.91-74.44,47,5.33,2.61,12.92-1,16.62,6a3.46,3.46,0,0,0,4,.09c19-12.38,35.72-27.93,55.55-39.09.45-.25.66-.91,1-1.38.42-8.27,6.82-13.71,9.84-20.75C136.85,111.09,133.6,115.31,129.65,118.32Z"/><path class="cls-15" d="M139.49,87.93a49,49,0,0,1-3.7,3.51c-8.25,6.44-11,5.43-13.67-4.61-1-3.82-2.35-7.63-7.9-7.33,7.12,7.71,4.74,17.17-4.8,20.47-9.32,3.23-14.94-2.15-20-8.75.46,3.06-.17,6.36,2.06,9,4.88,1.49,9.68,3.38,14.66,4.38,14.53,2.93,29.18-4.27,34.68-16.68C140.38,87.93,139.94,87.94,139.49,87.93Z"/><path class="cls-2" d="M139.49,87.93a49,49,0,0,1-3.7,3.51c-8.25,6.44-11,5.43-13.67-4.61-1-3.82-2.35-7.63-7.9-7.33,7.12,7.71,4.74,17.17-4.8,20.47-9.32,3.23-14.94-2.15-20-8.75.46,3.06-.17,6.36,2.06,9,4.88,1.49,9.68,3.38,14.66,4.38,14.53,2.93,29.18-4.27,34.68-16.68C140.38,87.93,139.94,87.94,139.49,87.93Z"/><path class="cls-1" d="M61.19,177.44a18.08,18.08,0,0,1-4.62,1.44l-2.61.33a19.13,19.13,0,0,0-2.51.46c-1.38.35-1.76,1.48-1.43,2.78a2.94,2.94,0,0,0,3.51-.1c6.56-.4,13.38-.21,16.83-7.55C67.07,174.59,64.12,176.18,61.19,177.44Z"/><path class="cls-2" d="M61.19,177.44a18.08,18.08,0,0,1-4.62,1.44l-2.61.33a19.13,19.13,0,0,0-2.51.46c-1.38.35-1.76,1.48-1.43,2.78a2.94,2.94,0,0,0,3.51-.1c6.56-.4,13.38-.21,16.83-7.55C67.07,174.59,64.12,176.18,61.19,177.44Z"/><path class="cls-16" d="M52.89,181.75l3.59.26c-1.9,5.61-6.62,2.71-10.09,3.14s-7.29,0-10.94-.06a12.26,12.26,0,0,0,2.89-.86l3.22-1,3.21-1c1.37-.41,2.56-1.31,4-1.62A4.9,4.9,0,0,1,52.89,181.75Z"/><path class="cls-17" d="M139.07,130.75c3.49-.94,8.61,2.76,10.23-3.57C145.43,127.05,141.8,127.61,139.07,130.75Z"/><path class="cls-2" d="M139.07,130.75c3.49-.94,8.61,2.76,10.23-3.57C145.43,127.05,141.8,127.61,139.07,130.75Z"/></svg>