<svg id="Capa_1" data-name="Capa 1" xmlns="http://www.w3.org/2000/svg" xmlns:xlink="http://www.w3.org/1999/xlink" viewBox="0 0 385.9 451.62"><defs><style>.cls-1,.cls-3{fill:#03bb85;}.cls-2{fill:#fff;}.cls-3{stroke:#009245;stroke-miterlimit:10;stroke-width:0.25px;filter:url(#filter);}</style><filter id="filter" x="0" y="223.62" width="222" height="228" filterUnits="userSpaceOnUse"><feOffset input="SourceAlpha"/><feGaussianBlur stdDeviation="8" result="blur"/><feFlood flood-color="#0a789e"/><feComposite operator="in" in2="blur"/><feComposite in="SourceGraphic"/></filter></defs><rect class="cls-1" x="366.75" y="313.75" width="18.66" height="55.97" rx="8.59"/><path class="cls-1" d="M121.74,0h260a4.18,4.18,0,0,1,4.18,4.18v288a3,3,0,0,1-3,3H121.74a46.65,46.65,0,0,1-46.65-46.65V46.65A46.65,46.65,0,0,1,121.74,0Z"/><path class="cls-1" d="M75.08,247.62l.36,12.68.81,28.19.84,29c.15,5.54-.22,11.14.85,16.61a47.43,47.43,0,0,0,18.47,28.19,37.45,37.45,0,0,0,20.41,6.5c25.36.72,218.36.8,254.26.95a5,5,0,0,0,4.93-5.65l-1.3-9.2a5,5,0,0,0-4.91-4.27H124.19s-29.5,1.19-29.46-27c0-26,31.42-29,31.42-29L83.84,244.28A5,5,0,0,0,75.08,247.62Z"/><rect class="cls-2" x="110.85" y="35.59" width="22.47" height="219.57" rx="11.23"/><path class="cls-3" d="M190.61,402.24a.65.65,0,0,1-.05.83,3.76,3.76,0,0,1-1.28,1.05,17.94,17.94,0,0,1-2.43,1.24c-1.14.52-2.31,1-3.47,1.4-1.47.55-2.95,1.05-4.44,1.54q-2.64.85-5.29,1.63-3,.88-6.06,1.7c-2.23.61-4.48,1.19-6.72,1.75-2.43.61-4.87,1.19-7.3,1.76-2.6.6-5.19,1.18-7.79,1.74s-5.44,1.15-8.16,1.69-5.63,1.1-8.46,1.61-5.76,1-8.64,1.51-5.83.94-8.75,1.37-5.84.84-8.76,1.21-5.77.71-8.66,1-5.65.56-8.47.78-5.46.4-8.2.53-5.21.21-7.82.24q-3.67,0-7.34-.07c-2.27-.08-4.53-.21-6.79-.42-2-.19-4.08-.44-6.12-.79a52.42,52.42,0,0,1-5.36-1.2,31.19,31.19,0,0,1-4.51-1.63,14.71,14.71,0,0,1-3-2c-1.82-1.5-3.46-3.19-5.26-4.71-.12-.1-.79-.49-.65-.71a1.62,1.62,0,0,1,.8.85c-1-.05-1.84-2.49-2.19-3.32a34.67,34.67,0,0,1-1.69-5.91c-.46-2.08-.83-4.18-1.15-6.3-.38-2.5-.68-5-.93-7.54q-.42-4.28-.68-8.58c-.2-3.15-.34-6.3-.44-9.46-.21-6.93-.21-13.88-.05-20.81q.13-5.51.41-11a341.84,341.84,0,0,1,4.85-43.78q.93-5,2.08-10c.73-3.12,1.54-6.21,2.46-9.26.85-2.83,1.78-5.62,2.84-8.34a72.8,72.8,0,0,1,3.25-7.24,45.36,45.36,0,0,1,3.66-6,27.24,27.24,0,0,1,4.08-4.52,1,1,0,0,0,.16-.13c5.32-8.32,13-8.24,11,3.28C46.12,372.69,55,408.16,173.39,390.21,177.39,391.72,212.16,384.71,190.61,402.24Z"/></svg>